<svg width="1024" height="1024" viewBox="0 0 1024 1024" fill="none" xmlns="http://www.w3.org/2000/svg">
<rect width="1024" height="1024" fill="#FEDF89"/>
<path fill-rule="evenodd" clip-rule="evenodd" d="M375.467 238.933C450.871 238.933 512 300.061 512 375.467V238.933H648.533C723.938 238.933 785.067 300.061 785.067 375.467C785.067 450.871 723.938 512 648.533 512C723.938 512 785.067 573.129 785.067 648.533C785.067 685.975 769.995 719.897 745.588 744.563L745.077 745.077L744.624 745.528C719.953 769.97 686.006 785.067 648.533 785.067C611.316 785.067 577.576 770.175 552.946 746.025C552.627 745.711 552.307 745.394 551.989 745.077C551.69 744.778 551.393 744.478 551.096 744.176C526.915 719.543 512 685.78 512 648.533C512 723.938 450.871 785.067 375.467 785.067C300.061 785.067 238.933 723.938 238.933 648.533V512H375.467C300.061 512 238.933 450.871 238.933 375.467C238.933 300.061 300.061 238.933 375.467 238.933ZM484.693 375.467C484.693 435.791 435.791 484.693 375.467 484.693V266.24C435.791 266.24 484.693 315.142 484.693 375.467ZM757.76 648.533C757.76 588.209 708.858 539.307 648.533 539.307C588.209 539.307 539.307 588.209 539.307 648.533H757.76ZM266.24 539.307V648.533C266.24 708.858 315.142 757.76 375.467 757.76C435.791 757.76 484.693 708.858 484.693 648.533V539.307H266.24ZM539.307 484.693V266.24H648.533C708.858 266.24 757.76 315.142 757.76 375.467C757.76 435.791 708.858 484.693 648.533 484.693H539.307Z" fill="#5417D7"/>
</svg>
